<svg width="43" height="45" viewBox="0 0 43 45" fill="none" xmlns="http://www.w3.org/2000/svg">
<path d="M23.8679 41.5464C23.8679 42.2744 23.5935 42.9727 23.1051 43.4875C22.6166 44.0023 21.9542 44.2915 21.2634 44.2915C20.5727 44.2915 19.9102 44.0023 19.4218 43.4875C18.9333 42.9727 18.6589 42.2744 18.6589 41.5464L18.6773 24.9401L2.92186 24.9595C2.2311 24.9595 1.56864 24.6702 1.0802 24.1554C0.59176 23.6406 0.317359 22.9424 0.317359 22.2143C0.317359 21.4862 0.591759 20.788 1.0802 20.2732C1.56864 19.7584 2.2311 19.4692 2.92186 19.4692L18.6773 19.4885L18.6589 2.88224C18.6589 2.15417 18.9333 1.45593 19.4218 0.941118C19.9102 0.426301 20.5727 0.137081 21.2634 0.137081C21.9542 0.137081 22.6167 0.426301 23.1051 0.941118C23.5935 1.45593 23.8679 2.15417 23.8679 2.88224L23.8496 19.4885L39.605 19.4692C40.2958 19.4692 40.9582 19.7584 41.4467 20.2732C41.9351 20.788 42.2095 21.4862 42.2095 22.2143C42.2095 22.9424 41.9351 23.6406 41.4467 24.1554C40.9582 24.6702 40.2958 24.9595 39.605 24.9595L23.8496 24.9401L23.8679 41.5464Z" fill="white"/>
</svg>
