<svg width="29" height="23" viewBox="0 0 29 23" fill="none" xmlns="http://www.w3.org/2000/svg">
<path d="M0 1.64286C0 1.20714 0.167218 0.789277 0.464868 0.481182C0.762519 0.173087 1.16622 0 1.58716 0H26.9817C27.4027 0 27.8064 0.173087 28.104 0.481182C28.4017 0.789277 28.5689 1.20714 28.5689 1.64286C28.5689 2.07857 28.4017 2.49644 28.104 2.80453C27.8064 3.11263 27.4027 3.28571 26.9817 3.28571H1.58716C1.16622 3.28571 0.762519 3.11263 0.464868 2.80453C0.167218 2.49644 0 2.07857 0 1.64286ZM26.9817 9.85714H1.58716C1.16622 9.85714 0.762519 10.0302 0.464868 10.3383C0.167218 10.6464 0 11.0643 0 11.5C0 11.9357 0.167218 12.3536 0.464868 12.6617C0.762519 12.9698 1.16622 13.1429 1.58716 13.1429H26.9817C27.4027 13.1429 27.8064 12.9698 28.104 12.6617C28.4017 12.3536 28.5689 11.9357 28.5689 11.5C28.5689 11.0643 28.4017 10.6464 28.104 10.3383C27.8064 10.0302 27.4027 9.85714 26.9817 9.85714ZM26.9817 19.7143H1.58716C1.16622 19.7143 0.762519 19.8874 0.464868 20.1955C0.167218 20.5036 0 20.9214 0 21.3571C0 21.7929 0.167218 22.2107 0.464868 22.5188C0.762519 22.8269 1.16622 23 1.58716 23H26.9817C27.4027 23 27.8064 22.8269 28.104 22.5188C28.4017 22.2107 28.5689 21.7929 28.5689 21.3571C28.5689 20.9214 28.4017 20.5036 28.104 20.1955C27.8064 19.8874 27.4027 19.7143 26.9817 19.7143Z" fill="#00469B"/>
</svg>
