<svg width="23" height="24" viewBox="0 0 23 24" fill="none" xmlns="http://www.w3.org/2000/svg">
<path d="M21.8764 21.9081L16.7317 16.595C18.016 14.9045 18.7122 12.8153 18.7078 10.6647C18.7078 8.74979 18.1592 6.87785 17.1313 5.28563C16.1035 3.69342 14.6426 2.45243 12.9334 1.71962C11.2243 0.9868 9.3435 0.795062 7.52903 1.16865C5.71455 1.54224 4.04785 2.46437 2.73969 3.81844C1.43153 5.17251 0.540658 6.8977 0.179736 8.77585C-0.181185 10.654 0.00405286 12.6007 0.712025 14.3699C1.42 16.1391 2.61891 17.6512 4.15714 18.7151C5.69538 19.779 7.50386 20.3469 9.35388 20.3469C11.4315 20.3514 13.45 19.6308 15.0831 18.3015L20.2161 23.6267C20.4362 23.8546 20.7349 23.9826 21.0462 23.9826C21.3576 23.9826 21.6562 23.8546 21.8764 23.6267C22.0965 23.3988 22.2202 23.0897 22.2202 22.7674C22.2202 22.4451 22.0965 22.136 21.8764 21.9081ZM4.39632 15.8568C3.2351 14.6814 2.50385 13.1254 2.32732 11.4542C2.1508 9.78298 2.53994 8.10016 3.42836 6.69282C4.31678 5.28548 5.64943 4.24081 7.19896 3.73704C8.74848 3.23327 10.4189 3.30161 11.9251 3.93041C13.4314 4.55921 14.6802 5.70951 15.4586 7.18505C16.2369 8.66059 16.4965 10.37 16.1931 12.0215C15.8897 13.6731 15.042 15.1645 13.7948 16.2413C12.5476 17.3182 10.978 17.9137 9.35388 17.9263C7.4939 17.9246 5.71071 17.1585 4.39632 15.7963V15.8568Z" fill="#00469B"/>
</svg>
