<svg width="18" height="19" viewBox="0 0 18 19" fill="none" xmlns="http://www.w3.org/2000/svg">
<path d="M17.3873 2.27795L17.3873 14.6795C17.3873 14.8722 17.3506 15.0631 17.2794 15.2411C17.2081 15.4192 17.1037 15.581 16.972 15.7172C16.8404 15.8535 16.6841 15.9616 16.5121 16.0353C16.34 16.1091 16.1557 16.1471 15.9695 16.1471C15.7833 16.1471 15.599 16.1091 15.4269 16.0353C15.2549 15.9616 15.0986 15.8535 14.967 15.7172C14.8353 15.581 14.7309 15.4192 14.6597 15.2411C14.5884 15.0631 14.5517 14.8723 14.5517 14.6795L14.5617 5.80206L2.98994 17.7799C2.72514 18.054 2.36599 18.208 1.99151 18.208C1.61703 18.208 1.25788 18.054 0.993083 17.7799C0.728283 17.5058 0.579521 17.1341 0.579521 16.7465C0.579521 16.3588 0.728283 15.9871 0.993083 15.713L12.5649 3.73513L3.98837 3.74547C3.61235 3.74547 3.25174 3.59086 2.98585 3.31564C2.71997 3.04043 2.5706 2.66716 2.5706 2.27795C2.5706 1.88874 2.71997 1.51547 2.98585 1.24025C3.25174 0.965041 3.61235 0.810428 3.98837 0.810428L15.9695 0.81043C16.1559 0.809639 16.3406 0.847055 16.513 0.920524C16.6853 0.993994 16.8419 1.10206 16.9737 1.23849C17.1055 1.37492 17.2099 1.53701 17.2809 1.71542C17.3519 1.89382 17.388 2.08501 17.3873 2.27795V2.27795Z" fill="white"/>
</svg>
